<?xml version="1.0" standalone="no"?>
<!DOCTYPE svg PUBLIC "-//W3C//DTD SVG 20010904//EN"
 "http://www.w3.org/TR/2001/REC-SVG-20010904/DTD/svg10.dtd">
<svg version="1.0" xmlns="http://www.w3.org/2000/svg"
 width="1052.000000pt" height="1052.000000pt" viewBox="0 0 1052.000000 1052.000000"
 preserveAspectRatio="xMidYMid meet">
<metadata>
Created by potrace 1.11, written by Peter Selinger 2001-2013
</metadata>
<g transform="translate(0.000000,1052.000000) scale(0.100000,-0.100000)"
fill="#000000" stroke="none">
<path d="M1638 10513 c-10 -3 -18 -8 -18 -13 0 -5 -7 -7 -15 -4 -8 4 -15 2
-15 -2 0 -5 -15 -16 -32 -23 -30 -13 -106 -81 -91 -81 3 0 -1 -8 -9 -17 -24
-28 -45 -77 -43 -101 1 -12 -2 -22 -6 -22 -9 0 -6 -106 3 -115 4 -4 4 -13 1
-21 -3 -8 0 -14 7 -14 6 0 8 -5 5 -10 -7 -11 36 -91 64 -119 40 -40 172 -117
156 -90 -5 7 -2 7 11 0 11 -5 26 -12 34 -14 13 -4 15 -126 15 -1023 l0 -1019
-69 -2 c-96 -4 -156 -17 -156 -35 0 -5 -4 -7 -9 -3 -6 3 -13 -1 -18 -8 -4 -8
-20 -22 -35 -32 -16 -9 -28 -24 -28 -31 0 -8 -4 -14 -8 -14 -7 0 -41 -60 -48
-85 -13 -47 -17 -66 -23 -105 -5 -38 -5 -1240 0 -1277 1 -7 6 -13 11 -13 5 0
7 -4 4 -8 -9 -15 36 -93 75 -132 35 -34 119 -87 119 -74 0 2 9 0 20 -6 10 -6
33 -12 50 -14 17 -2 33 -6 37 -9 3 -4 14 -2 24 4 14 7 19 6 19 -3 0 -9 3 -9
11 -1 7 7 21 8 38 3 14 -4 35 -4 46 0 11 4 23 3 26 -2 4 -7 14 -6 27 1 15 8
23 8 28 0 4 -8 9 -7 15 2 7 11 9 11 9 1 0 -7 5 -10 11 -6 6 4 53 8 104 9 52 2
98 6 104 10 6 3 14 -2 17 -12 3 -10 12 -31 19 -48 8 -16 11 -33 9 -37 -3 -4 0
-8 7 -8 7 0 10 -3 6 -6 -3 -4 0 -19 8 -34 8 -15 11 -30 8 -34 -4 -3 0 -6 7 -6
7 0 11 -3 7 -6 -8 -8 13 -64 25 -64 5 0 7 -3 4 -8 -2 -4 3 -23 12 -42 8 -19
16 -37 17 -40 1 -3 19 -41 40 -85 21 -44 38 -83 37 -87 -1 -5 1 -8 6 -8 4 0
13 -15 21 -32 8 -18 17 -35 20 -38 3 -3 14 -21 24 -40 21 -41 62 -111 74 -125
4 -5 14 -22 22 -37 8 -16 18 -28 23 -28 4 0 8 -7 8 -15 0 -8 4 -15 9 -15 5 0
11 -8 14 -17 4 -10 13 -28 22 -39 15 -20 14 -22 -5 -27 -12 -3 -18 -1 -14 5 4
7 0 7 -12 0 -11 -5 -37 -7 -59 -5 -22 2 -47 4 -55 3 -17 -1 -75 -1 -105 -1
-11 0 -38 0 -60 0 -22 0 -49 0 -60 1 -102 4 -275 -29 -275 -54 0 -5 -3 -7 -6
-3 -4 3 -18 0 -33 -7 -33 -18 -147 -106 -136 -106 4 0 -4 -11 -19 -25 -14 -13
-26 -27 -26 -30 0 -4 -13 -26 -30 -49 -16 -24 -26 -46 -23 -50 4 -3 1 -6 -5
-6 -7 0 -11 -3 -11 -8 1 -4 -4 -23 -12 -42 -7 -19 -12 -38 -11 -43 1 -4 -3 -7
-9 -7 -6 0 -9 -9 -6 -20 3 -11 1 -20 -4 -20 -5 0 -10 -144 -11 -327 l-3 -327
-25 -13 c-14 -7 -21 -13 -16 -13 5 0 -10 -14 -32 -30 -23 -17 -42 -35 -42 -40
0 -6 -7 -10 -15 -10 -8 0 -15 -4 -15 -9 0 -4 -23 -31 -51 -60 -27 -28 -48 -51
-45 -51 2 0 -9 -15 -26 -34 -16 -19 -30 -37 -29 -40 1 -3 -8 -15 -19 -26 -11
-11 -20 -27 -20 -36 0 -8 -4 -12 -10 -9 -5 3 -10 0 -10 -8 0 -8 -6 -20 -14
-26 -8 -7 -18 -26 -21 -42 -4 -16 -10 -27 -15 -24 -4 3 -16 -18 -26 -45 -10
-28 -22 -50 -27 -50 -4 0 -5 -4 -2 -10 3 -5 2 -10 -3 -10 -6 0 -13 -12 -18
-27 -4 -16 -8 -30 -9 -33 -1 -3 -8 -21 -15 -40 -8 -19 -12 -37 -11 -39 1 -2
-1 -7 -6 -10 -7 -5 -27 -59 -39 -103 -1 -5 -3 -11 -4 -15 -1 -5 -2 -11 -1 -15
0 -5 -4 -8 -10 -8 -5 0 -7 -4 -4 -10 3 -5 2 -18 -4 -27 -5 -10 -12 -34 -15
-53 -8 -39 -14 -65 -16 -65 -3 0 -11 -38 -16 -75 -3 -19 -7 -42 -10 -50 -3 -8
-8 -35 -11 -60 -6 -47 -11 -75 -13 -75 -1 0 -8 -66 -14 -130 -1 -11 -6 -26
-10 -34 -7 -10 -6 -12 4 -6 9 6 11 4 5 -6 -5 -7 -11 -27 -13 -44 -5 -39 -9
-920 -4 -1005 l3 -65 40 -17 c22 -9 42 -17 46 -17 3 1 9 -4 12 -10 4 -5 27
-19 51 -30 25 -11 41 -21 36 -21 -5 0 26 -18 70 -41 115 -59 138 -73 146 -84
4 -5 8 -6 8 -1 0 5 8 2 18 -6 9 -8 37 -26 62 -39 25 -13 53 -30 62 -38 10 -8
18 -11 18 -6 0 4 6 2 14 -4 7 -6 33 -22 57 -35 24 -13 60 -32 79 -42 19 -11
37 -21 40 -24 3 -3 28 -17 55 -30 28 -14 52 -28 55 -31 3 -3 20 -12 38 -20 17
-8 32 -18 32 -22 0 -5 4 -6 9 -3 5 4 11 2 13 -2 6 -15 200 -113 303 -152 11
-5 49 -19 85 -33 61 -24 98 -38 110 -42 3 -1 19 -7 35 -14 17 -7 42 -15 58
-18 15 -3 27 -9 27 -14 0 -5 10 -9 23 -9 13 0 28 -5 35 -12 7 -7 12 -8 12 -4
0 5 7 3 15 -4 8 -7 15 -10 15 -7 0 4 20 -2 45 -13 25 -11 45 -17 45 -14 0 2
13 -2 29 -10 15 -8 39 -17 52 -20 13 -2 38 -10 54 -17 17 -6 35 -13 40 -14 46
-11 104 -27 120 -35 11 -4 34 -12 50 -16 17 -4 32 -8 35 -9 3 -1 25 -7 50 -14
25 -7 52 -16 60 -19 8 -3 19 -4 24 -3 4 1 13 -2 20 -7 6 -5 47 -17 91 -27 44
-9 90 -22 102 -27 11 -6 26 -7 32 -4 6 4 11 2 11 -3 0 -6 3 -10 8 -9 4 1 18
-2 32 -5 14 -4 36 -9 50 -11 14 -3 68 -17 120 -31 52 -15 102 -28 110 -30 8
-2 15 -4 15 -5 0 -2 37 -10 63 -12 12 -1 22 -7 22 -12 0 -5 3 -7 6 -4 3 3 29
0 57 -8 29 -7 63 -15 77 -18 24 -5 40 -8 93 -22 12 -3 40 -8 62 -10 22 -3 47
-8 55 -11 8 -3 26 -7 40 -9 14 -1 39 -5 55 -9 17 -3 48 -8 70 -11 21 -2 51 -7
65 -9 14 -3 63 -8 110 -11 47 -4 93 -10 102 -15 10 -6 19 -5 23 1 4 6 11 7 18
3 19 -12 102 -14 500 -16 253 -1 387 1 387 8 0 5 5 3 10 -5 5 -8 10 -10 10 -5
0 6 21 11 48 12 26 0 79 4 117 7 72 7 92 9 205 22 36 4 75 7 88 7 12 0 22 3
22 7 0 4 12 8 28 8 27 0 57 4 137 19 22 3 46 6 53 4 6 -1 12 2 12 6 0 4 12 8
28 9 24 0 79 9 107 18 6 1 33 7 60 11 57 10 63 12 70 15 3 1 13 3 23 5 9 1 24
4 32 8 8 3 32 9 54 12 21 3 42 8 47 11 5 3 17 7 26 8 10 2 36 7 58 11 22 5 43
8 48 7 4 -1 7 3 7 10 0 6 3 9 6 5 3 -3 18 -1 33 5 14 5 36 12 49 14 13 3 44
12 69 20 25 9 53 17 62 19 9 2 53 12 99 22 46 10 80 22 77 25 -4 4 1 5 12 4
10 -2 23 -1 28 3 6 3 17 6 25 7 8 0 35 6 60 14 42 12 67 18 98 22 6 1 12 5 12
9 0 4 11 6 25 4 14 -1 27 1 30 5 2 4 33 13 67 20 35 7 68 16 73 20 6 3 17 6
25 5 8 0 17 2 20 5 4 5 94 32 150 46 3 0 12 4 20 7 12 5 51 16 145 41 38 10
162 50 170 55 6 3 17 6 25 7 8 0 28 6 43 12 16 7 35 12 43 12 8 0 14 5 14 11
0 5 5 7 10 4 6 -4 17 -1 25 5 8 7 15 9 15 5 0 -4 6 -3 13 2 14 11 129 48 140
45 4 -1 7 2 7 6 0 4 17 14 38 21 20 8 48 18 62 24 14 6 27 11 30 11 3 1 19 6
35 13 58 22 70 26 75 28 3 0 33 13 67 29 34 16 66 28 70 28 4 0 20 9 35 19 14
10 32 19 38 19 14 0 237 116 260 135 8 7 34 20 57 30 23 10 40 22 37 26 -2 4
5 11 17 14 12 4 29 13 38 20 9 8 47 39 85 70 38 30 83 72 100 92 17 20 38 44
46 53 8 9 16 21 17 27 10 51 14 84 20 193 12 203 7 839 -7 858 -1 1 -2 27 -2
57 -1 30 -4 55 -7 55 -4 0 -6 12 -5 28 1 15 -3 37 -7 49 -6 15 -5 23 2 23 8 0
8 4 2 13 -6 6 -11 19 -11 27 -1 30 -19 145 -22 145 -1 0 -3 9 -5 20 -1 11 -6
38 -9 60 -4 22 -8 49 -10 60 -2 11 -4 20 -6 20 -1 0 -3 9 -5 20 -8 44 -17 81
-22 95 -8 20 -13 41 -15 63 -1 9 -6 17 -11 17 -5 0 -7 7 -4 15 4 8 2 17 -3 20
-4 3 -11 23 -15 45 -4 22 -10 40 -15 40 -4 0 -10 14 -14 31 -3 17 -16 52 -27
77 -12 26 -21 51 -20 55 1 4 -5 15 -14 23 -8 9 -15 24 -15 35 0 10 -4 19 -8
19 -5 0 -23 32 -42 70 -19 39 -37 70 -41 70 -4 0 -10 8 -14 19 -5 17 -18 34
-70 94 -8 9 -13 17 -10 17 3 0 0 6 -7 14 -7 8 -16 12 -20 9 -5 -2 -8 0 -8 4 0
9 -88 103 -96 103 -2 0 -13 8 -23 17 -33 30 -45 38 -93 67 l-48 28 3 83 c1 52
6 81 12 77 5 -3 5 1 -2 9 -16 20 -17 31 -1 40 7 5 8 9 2 9 -15 0 -16 63 -1 72
8 5 8 8 1 8 -10 0 -11 21 -4 55 1 6 1 12 0 15 -6 15 -4 67 3 63 9 -5 9 11 0
21 -4 4 -8 24 -9 44 -1 20 -7 57 -13 82 -7 25 -13 51 -13 58 -1 6 -4 12 -7 12
-4 0 -17 20 -31 45 -14 25 -28 45 -32 45 -5 0 -8 4 -8 10 0 9 -47 60 -55 60
-10 0 -45 41 -45 52 0 6 -3 9 -6 6 -3 -4 -22 5 -41 18 -20 13 -40 24 -45 24
-5 0 -6 5 -3 10 4 6 3 10 -2 9 -8 -3 -64 21 -73 31 -11 12 -51 30 -65 30 -8 0
-15 5 -15 10 0 6 -3 9 -7 9 -5 -1 -10 0 -13 1 -12 4 -46 10 -60 10 -31 -1 -96
-1 -115 -1 -11 0 -38 0 -60 0 -22 0 -49 0 -60 0 -11 1 -59 0 -108 -1 -76 -3
-87 -1 -87 14 0 9 4 19 9 22 13 8 120 172 131 201 5 14 14 25 20 25 5 0 9 3 8
8 -3 10 32 75 46 84 6 4 7 8 2 8 -5 0 -2 8 6 18 8 9 24 38 34 64 10 27 22 48
27 48 4 0 7 5 7 10 0 6 14 41 31 78 59 127 75 169 71 185 -1 4 2 7 8 7 6 0 9
3 8 8 -3 14 25 92 38 102 14 13 124 18 124 7 0 -5 4 -6 10 -2 5 3 87 7 182 8
l173 2 45 31 c25 17 48 32 53 33 15 2 107 102 107 116 0 8 5 15 12 15 6 0 9 3
5 6 -3 3 -1 18 4 33 10 24 16 288 23 876 1 127 5 236 10 243 4 7 2 12 -4 12
-8 0 -7 6 1 21 9 17 8 20 -3 13 -11 -6 -11 -5 1 9 7 9 9 17 4 17 -11 0 -11 29
1 48 4 7 2 12 -4 12 -6 0 -9 4 -6 9 10 15 -25 114 -52 151 -32 44 -48 59 -92
90 -19 13 -37 27 -40 31 -5 7 -70 42 -82 45 -5 1 -11 3 -15 4 -5 1 -12 3 -18
5 -5 1 -12 3 -15 4 -20 9 -64 12 -199 14 l-155 2 -12 30 c-7 17 -10 33 -7 38
2 4 1 13 -4 20 -4 6 -8 14 -8 17 -4 36 -40 138 -48 133 -6 -3 -7 -1 -3 6 4 7
1 27 -8 46 -9 18 -19 47 -22 64 -4 17 -10 31 -14 31 -3 0 -7 6 -8 13 -3 33
-17 65 -118 272 -66 134 -103 203 -126 229 -17 19 -22 31 -19 49 0 4 -4 7 -9
7 -6 0 -10 5 -10 11 0 6 -6 17 -12 24 -31 35 -38 45 -31 45 4 0 3 4 -2 8 -20
14 -64 80 -58 86 4 3 1 6 -5 6 -6 0 -26 21 -43 48 -18 26 -35 49 -39 52 -3 3
-34 39 -68 80 -34 41 -66 80 -71 85 -5 6 -28 29 -50 53 -23 24 -41 48 -41 53
0 5 -4 9 -9 9 -5 0 -41 32 -80 70 -39 39 -76 70 -81 70 -6 0 -10 7 -10 15 0 8
-4 15 -8 15 -10 0 -75 53 -108 88 -12 12 -26 22 -33 22 -6 0 -24 14 -39 30
-16 17 -32 30 -35 30 -4 0 -28 16 -54 35 -27 19 -52 39 -58 43 -47 34 -155
102 -164 102 -5 0 -14 6 -18 13 -4 7 -20 18 -35 24 -16 7 -28 17 -28 22 0 6
-7 8 -15 5 -8 -4 -15 -2 -15 4 0 6 -16 16 -35 22 -19 6 -35 15 -35 20 0 4 -12
11 -26 14 -14 4 -43 18 -64 31 -21 13 -41 21 -44 18 -3 -4 -6 -1 -6 5 0 7 -6
12 -12 12 -7 0 -33 10 -58 23 -25 12 -74 33 -110 46 -36 13 -69 27 -75 32 -5
5 -15 9 -21 9 -7 0 -25 5 -41 12 -15 6 -32 10 -37 9 -5 -1 -12 2 -15 7 -6 9
-107 40 -156 48 -16 3 -37 8 -45 11 -8 3 -21 8 -27 10 -57 15 -85 22 -118 28
-35 5 -117 22 -127 26 -2 0 -12 2 -23 3 -11 2 -40 6 -65 9 -71 10 -162 20
-195 21 -16 0 -33 5 -37 11 -5 6 -8 5 -8 -3 0 -9 -5 -10 -17 -3 -10 5 -26 5
-39 1 -12 -5 -25 -6 -29 -2 -11 11 -325 8 -325 -3 0 -5 -5 -3 -10 5 -5 8 -10
10 -10 5 0 -6 -12 -10 -28 -11 -42 -1 -183 -14 -222 -21 -19 -3 -47 -7 -62 -7
-16 -1 -28 -4 -28 -8 0 -4 -9 -5 -20 -3 -11 2 -20 0 -20 -4 0 -5 -10 -9 -22
-9 -13 0 -49 -5 -80 -11 -32 -7 -61 -12 -65 -13 -5 0 -16 -4 -27 -10 -10 -6
-28 -11 -40 -13 -46 -7 -80 -16 -100 -27 -12 -6 -22 -11 -24 -10 -5 5 -58 -11
-69 -21 -7 -5 -13 -7 -13 -3 0 4 -13 0 -30 -9 -16 -9 -30 -13 -30 -9 0 4 -6 2
-12 -3 -7 -5 -35 -18 -63 -27 -93 -33 -381 -171 -441 -212 -19 -13 -38 -24
-41 -24 -4 0 -14 -7 -24 -16 -9 -8 -26 -17 -36 -19 -10 -1 -17 -7 -16 -13 1
-6 -11 -13 -27 -17 -17 -4 -30 -10 -30 -15 0 -4 -30 -27 -67 -51 -37 -24 -75
-52 -85 -63 -10 -11 -18 -17 -18 -13 0 7 -35 -22 -91 -75 -16 -14 -29 -24 -29
-22 0 6 -74 -61 -137 -123 -24 -23 -43 -39 -43 -35 0 4 -9 -6 -20 -23 -11 -16
-20 -26 -20 -22 0 5 -12 -6 -27 -23 -15 -18 -53 -59 -84 -91 -32 -33 -56 -59
-54 -59 4 0 -48 -60 -92 -107 -13 -13 -23 -28 -23 -33 0 -6 -4 -10 -10 -10 -5
0 -10 -6 -10 -14 0 -8 -10 -22 -22 -30 -12 -9 -19 -16 -14 -16 5 0 -4 -12 -20
-27 -16 -15 -28 -29 -28 -32 2 -8 -58 -95 -68 -99 -4 -2 -8 -8 -8 -13 0 -5
-17 -35 -37 -66 -21 -32 -43 -68 -50 -80 -28 -53 -48 -88 -53 -93 -7 -7 -27
-53 -28 -64 0 -5 -4 -12 -9 -15 -11 -7 -53 -96 -53 -111 0 -5 -5 -10 -10 -10
-6 0 -9 -3 -8 -7 1 -5 -6 -26 -16 -48 -32 -72 -76 -189 -76 -202 0 -7 -5 -13
-11 -13 -5 0 -8 -4 -5 -9 3 -5 -1 -22 -9 -37 -8 -16 -18 -46 -21 -66 -4 -21
-10 -38 -13 -38 -4 0 -8 -8 -9 -17 -4 -35 -8 -53 -15 -59 -4 -4 -7 -18 -7 -31
0 -15 -6 -23 -17 -24 -36 -3 -186 2 -192 5 -5 3 -7 1992 -2 2043 1 11 38 29
54 25 4 -1 7 2 7 7 0 5 8 12 18 15 45 15 142 138 142 182 0 7 6 15 13 17 9 4
9 6 -1 6 -8 1 -10 6 -6 13 10 15 13 118 5 118 -4 0 -8 11 -9 25 -2 28 -34 95
-60 126 -27 33 -104 89 -113 83 -5 -3 -9 0 -9 6 0 7 -7 9 -16 6 -8 -3 -12 -2
-9 4 6 10 5 10 -120 14 -49 2 -98 1 -107 -1z"/>
</g>
</svg>
