<svg xmlns="http://www.w3.org/2000/svg" width="299" height="124" viewBox="0 0 299 124">
  <path fill="#FFFFFF" fill-rule="evenodd" d="M194.887909,110.801069 C182.199335,118.627508 166.387031,123.270588 149.243243,123.270588 C128.260374,123.270588 109.272089,116.315184 95.564418,105.080736 C86.8016269,112.12954 74.8380967,116.470588 61.6486486,116.470588 C34.7807419,116.470588 13,98.4566335 13,76.2352941 C13,73.2850773 13.3839194,70.4090222 14.1126921,67.6394387 C5.22905111,61.045478 0,52.9650596 0,44.2352941 C0,22.0139548 33.8811541,4 75.6756757,4 C88.3253512,4 100.250121,5.65017166 110.730015,8.56772029 C122.012167,3.12451122 135.179701,0 149.243243,0 C174.670881,0 197.169416,10.2142078 210.891016,25.8797604 C219.703583,18.5427244 231.913059,14 245.405405,14 C272.273312,14 294.054054,32.0139548 294.054054,54.2352941 C294.054054,60.2544529 292.455955,65.9649068 289.591533,71.092257 C295.554104,75.9006773 299,81.5828612 299,87.6705882 C299,104.973345 271.163002,119 236.824324,119 C220.664381,119 205.944357,115.893534 194.887909,110.801069 Z"/>
</svg>
